<svg width="22" height="23" viewBox="0 0 22 23" fill="none" xmlns="http://www.w3.org/2000/svg">
<path d="M2 5.5H4M4 5.5H20M4 5.5V19.5C4 20.0304 4.21071 20.5391 4.58579 20.9142C4.96086 21.2893 5.46957 21.5 6 21.5H16C16.5304 21.5 17.0391 21.2893 17.4142 20.9142C17.7893 20.5391 18 20.0304 18 19.5V5.5H4ZM7 5.5V3.5C7 2.96957 7.21071 2.46086 7.58579 2.08579C7.96086 1.71071 8.46957 1.5 9 1.5H13C13.5304 1.5 14.0391 1.71071 14.4142 2.08579C14.7893 2.46086 15 2.96957 15 3.5V5.5M9 10.5V16.5M13 10.5V16.5" stroke="#60E3D5" stroke-width="3" stroke-linecap="round" stroke-linejoin="round"/>
</svg>
