<svg width="15" height="18" viewBox="0 0 15 18" fill="none" xmlns="http://www.w3.org/2000/svg">
<path d="M5.79916 16.5636V10.5539C5.79916 10.0991 5.79916 9.87168 5.8675 9.69796C5.92761 9.54515 6.02353 9.42091 6.14151 9.34305C6.27563 9.25454 6.4512 9.25454 6.80236 9.25454H8.55796C8.90911 9.25454 9.08469 9.25454 9.21881 9.34305C9.33679 9.42091 9.43271 9.54515 9.49282 9.69796C9.56116 9.87168 9.56116 10.0991 9.56116 10.5539V16.5636M1.41016 7.22425L7.07824 1.71812C7.29409 1.50844 7.40201 1.40359 7.52054 1.36318C7.62517 1.32751 7.73514 1.32751 7.83977 1.36318C7.9583 1.4036 8.06623 1.50844 8.28208 1.71812L13.9502 7.22425M2.66416 6.00608V13.9648C2.66416 14.8745 2.66416 15.3293 2.80084 15.6767C2.92106 15.9823 3.1129 16.2308 3.34885 16.3865C3.6171 16.5636 3.96825 16.5636 4.67056 16.5636H10.6898C11.3921 16.5636 11.7432 16.5636 12.0115 16.3865C12.2474 16.2308 12.4393 15.9823 12.5595 15.6767C12.6962 15.3293 12.6962 14.8745 12.6962 13.9648V6.00608L8.884 2.30284C8.4523 1.88348 8.23645 1.67379 7.99938 1.59296C7.79013 1.52162 7.57018 1.52162 7.36093 1.59296C7.12387 1.67379 6.90802 1.88348 6.47632 2.30284L2.66416 6.00608Z" stroke="white" stroke-width="2" stroke-linecap="round" stroke-linejoin="round"/>
</svg>
