<svg width="25" height="25" viewBox="0 0 25 25" fill="none" xmlns="http://www.w3.org/2000/svg">
<path d="M6.11111 1V5.34444C6.11111 6.06007 6.11111 6.41788 6.25038 6.69121C6.37289 6.93164 6.56836 7.12711 6.80879 7.24962C7.08212 7.38889 7.43993 7.38889 8.15556 7.38889H16.8444C17.5601 7.38889 17.9179 7.38889 18.1912 7.24962C18.4316 7.12711 18.6271 6.93164 18.7496 6.69121C18.8889 6.41788 18.8889 6.06007 18.8889 5.34444V2.27778M18.8889 24V15.8222C18.8889 15.1066 18.8889 14.7488 18.7496 14.4755C18.6271 14.235 18.4316 14.0396 18.1912 13.917C17.9179 13.7778 17.5601 13.7778 16.8444 13.7778H8.15556C7.43993 13.7778 7.08212 13.7778 6.80879 13.917C6.56836 14.0396 6.37289 14.235 6.25038 14.4755C6.11111 14.7488 6.11111 15.1066 6.11111 15.8222V24M24 9.08256V17.8667C24 20.0135 24 21.087 23.5822 21.907C23.2147 22.6283 22.6283 23.2147 21.907 23.5822C21.087 24 20.0135 24 17.8667 24H7.13333C4.98647 24 3.91303 24 3.09304 23.5822C2.37175 23.2147 1.78532 22.6283 1.41781 21.907C1 21.087 1 20.0135 1 17.8667V7.13333C1 4.98647 1 3.91303 1.41781 3.09304C1.78532 2.37175 2.37175 1.78532 3.09304 1.41781C3.91303 1 4.98647 1 7.13333 1H15.9174C16.5425 1 16.855 1 17.1491 1.07061C17.4099 1.13321 17.6592 1.23647 17.8878 1.37659C18.1457 1.53463 18.3667 1.75562 18.8087 2.19761L22.8024 6.19128C23.2444 6.63327 23.4654 6.85426 23.6234 7.11216C23.7635 7.34081 23.8668 7.59009 23.9294 7.85085C24 8.14496 24 8.4575 24 9.08256Z" stroke="#0C98B4" stroke-width="2" stroke-linecap="round" stroke-linejoin="round"/>
</svg>
