<svg width="19" height="19" viewBox="0 0 19 19" fill="none" xmlns="http://www.w3.org/2000/svg">
<path d="M9.55 17.6C13.9959 17.6 17.6 13.9959 17.6 9.55C17.6 5.10411 13.9959 1.5 9.55 1.5C5.10411 1.5 1.5 5.10411 1.5 9.55C1.5 13.9959 5.10411 17.6 9.55 17.6Z" stroke="white" stroke-width="1.4" stroke-linecap="round" stroke-linejoin="round"/>
<path d="M6.33 7.618C6.33 7.16716 6.33 6.94174 6.41774 6.76954C6.49492 6.61807 6.61807 6.49492 6.76954 6.41774C6.94174 6.33 7.16716 6.33 7.618 6.33H11.482C11.9328 6.33 12.1583 6.33 12.3305 6.41774C12.4819 6.49492 12.6051 6.61807 12.6823 6.76954C12.77 6.94174 12.77 7.16716 12.77 7.618V11.482C12.77 11.9328 12.77 12.1583 12.6823 12.3305C12.6051 12.4819 12.4819 12.6051 12.3305 12.6823C12.1583 12.77 11.9328 12.77 11.482 12.77H7.618C7.16716 12.77 6.94174 12.77 6.76954 12.6823C6.61807 12.6051 6.49492 12.4819 6.41774 12.3305C6.33 12.1583 6.33 11.9328 6.33 11.482V7.618Z" stroke="white" stroke-width="1.4" stroke-linecap="round" stroke-linejoin="round"/>
</svg>
